# xmcd
#
# Track frame offsets: 
#        150
#        27187
#        51869
#        75471
#        89207
#        116400
#        124720
#        140547
#        153312
#        173243
#        184987
#        195524
#        214211
#        230925
#        253702
#        269040
#        290879
#        314619
#
# Disc length: 4497 seconds
#
# Revision: 0
# Processed by: cddbd v1.5.1PL2 Copyright (c) Steve Scherf et al.
# Submitted via: ExactAudioCopy v0.95a4
#
DISCID=1a118f12
DTITLE=Vcam (James Long) - Obvolution
DYEAR=1998
DGENRE=Elec_IDM
TTITLE0=Aemic - ADSL
TTITLE1=Autechre - Rae
TTITLE2=Autechre - 902 Quarter
TTITLE3=Funkstorung - Bei Funkstorungen
TTITLE4=Michael Fakesch - Proture
TTITLE5=Michael Fakesch - From Crocut
TTITLE6=Richard Coleman Devine - Untitled
TTITLE7=Funkstorung - Must
TTITLE8=Michael Fakesch - Rand (Version C)
TTITLE9=Richard Coleman Devine - Untitled
TTITLE10=Michael Fakesch - Diesenie
TTITLE11=Funkstorung - Funktionsstorung
TTITLE12=Funkstorung - Tank
TTITLE13=Funkstorung - Economy
TTITLE14=Gescom - Viral Rival
TTITLE15=Autechre - Yeesland
TTITLE16=Autechre - Second Scepe
TTITLE17=Autechre - Lost
EXTD=
EXTT0=
EXTT1=
EXTT2=
EXTT3=
EXTT4=
EXTT5=
EXTT6=
EXTT7=
EXTT8=
EXTT9=
EXTT10=
EXTT11=
EXTT12=
EXTT13=
EXTT14=
EXTT15=
EXTT16=
EXTT17=
PLAYORDER=
